<svg id="图层_1" data-name="图层 1" xmlns="http://www.w3.org/2000/svg" viewBox="0 0 40 40"><title>1123-内页icon整体大小调整-40px的副本</title><path d="M29.43,12.65a10.64,10.64,0,1,0-18.17,7.51,11,11,0,0,0,1.21,1l.42.32-.49.21A17.1,17.1,0,0,0,2.06,36.18a1.48,1.48,0,0,0-.06.38A1.43,1.43,0,0,0,3.44,38h0a1.49,1.49,0,0,0,1.46-1.51l0-.08A14.35,14.35,0,0,1,18.11,23.26l.69,0H19c.28,0,.56,0,.84-.05a10.82,10.82,0,0,0,3.06-.76A10.62,10.62,0,0,0,29.43,12.65ZM21.75,19.8a7.74,7.74,0,1,1,4.79-7.15A7.7,7.7,0,0,1,21.75,19.8Z"/><path d="M29.88,27.08a1.19,1.19,0,0,1-1.27-1.27,1.27,1.27,0,0,1,1.26-1.26h6.86a1.27,1.27,0,0,1,0,2.53Z"/><path d="M25.77,32.42a1.27,1.27,0,1,1,0-2.53h11a1.24,1.24,0,0,1,.92.35,1.3,1.3,0,0,1-.92,2.18Z"/><path d="M25.91,37.9a1.27,1.27,0,0,1,0-2.54H36.73A1.28,1.28,0,0,1,38,36.63a1.19,1.19,0,0,1-1.27,1.27Z"/></svg>