<svg id="图层_1" data-name="图层 1" xmlns="http://www.w3.org/2000/svg" viewBox="0 0 71.7 71.7">
  <defs>
    <style>
      .cls-1 {
        fill: #0d3dfb;
      }

      .cls-2 {
        fill: #fff;
      }
    </style>
  </defs>
  <title>数栖_logo</title>
  <g id="图层_2" data-name="图层 2">
    <g id="_004" data-name=" 004">
      <path class="cls-1" d="M35.85,17A18.85,18.85,0,1,1,17,35.86s0,0,0,0A18.86,18.86,0,0,1,35.85,17m0-17A35.85,35.85,0,1,0,71.7,35.85h0A35.84,35.84,0,0,0,35.86,0Z"/>
      <path class="cls-2" d="M35.85,61.61a25.74,25.74,0,0,1-7.26-1,1.5,1.5,0,0,1,.84-2.87,22.84,22.84,0,0,0,17.82-2.13,1.49,1.49,0,0,1,1.5,2.58h0A25.76,25.76,0,0,1,35.85,61.61ZM23.73,58.37a1.52,1.52,0,0,1-.74-.2A25.91,25.91,0,0,1,10.81,41.92a1.49,1.49,0,0,1,2.9-.7A22.88,22.88,0,0,0,24.48,55.58a1.49,1.49,0,0,1-.75,2.79Zm28.86-3.46a1.49,1.49,0,0,1-1-2.57,22.57,22.57,0,0,0,7.07-16.5v0a1.5,1.5,0,0,1,3,0h0a25.54,25.54,0,0,1-8,18.67A1.47,1.47,0,0,1,52.59,54.91Zm-41-17.55a1.49,1.49,0,0,1-1.5-1.48h0a25.55,25.55,0,0,1,8-18.63,1.49,1.49,0,1,1,2.06,2.16h0a22.56,22.56,0,0,0-7,16.47h0a1.49,1.49,0,0,1-1.49,1.49Zm47.85-5.77A1.49,1.49,0,0,1,58,30.45a22.89,22.89,0,0,0-10.8-14.36,1.49,1.49,0,0,1,1.44-2.61l.05,0A25.89,25.89,0,0,1,60.89,29.74a1.51,1.51,0,0,1-1.1,1.81ZM23.69,16.33a1.46,1.46,0,0,1-1.29-.74,1.48,1.48,0,0,1,.54-2,25.82,25.82,0,0,1,20.15-2.44,1.51,1.51,0,0,1,1,1.86,1.49,1.49,0,0,1-1.85,1,22.88,22.88,0,0,0-17.82,2.15A1.48,1.48,0,0,1,23.69,16.33Z"/>
      <path class="cls-2" d="M35.87,67.59a31.88,31.88,0,0,1-9.13-1.34l-1-.34a1.49,1.49,0,1,1,.8-2.87l.15.05,1,.3a28.64,28.64,0,0,0,19-.87,1.49,1.49,0,0,1,1.27,2.69l-.16.07A31.53,31.53,0,0,1,35.87,67.59ZM21,63.67a1.54,1.54,0,0,1-.74-.19A31.8,31.8,0,0,1,6,46.65a1.49,1.49,0,1,1,2.8-1A28.85,28.85,0,0,0,21.71,60.9a1.48,1.48,0,0,1,.56,2A1.46,1.46,0,0,1,21,63.67Zm31.28-.9A1.52,1.52,0,0,1,51,62.08,1.5,1.5,0,0,1,51.43,60h0a28.78,28.78,0,0,0,12-16v-.09a1.49,1.49,0,1,1,2.86.85h0v.09A31.8,31.8,0,0,1,53,62.53a1.49,1.49,0,0,1-.77.24ZM5.95,42.11a1.49,1.49,0,0,1-1.47-1.25,32.6,32.6,0,0,1-.4-5A31.83,31.83,0,0,1,8.75,19.24a1.49,1.49,0,1,1,2.62,1.41l-.08.14a29.09,29.09,0,0,0-4.23,15,27.78,27.78,0,0,0,.37,4.56A1.49,1.49,0,0,1,6.2,42.06h0Zm60-1.82H65.8a1.48,1.48,0,0,1-1.33-1.61v0c.09-.94.14-1.9.14-2.85a28.72,28.72,0,0,0-5.19-16.47,1.49,1.49,0,1,1,2.33-1.86l.11.16A31.58,31.58,0,0,1,67.63,35.8a30.21,30.21,0,0,1-.16,3.2A1.49,1.49,0,0,1,66,40.29ZM13.45,16.93a1.51,1.51,0,0,1-1-.39,1.49,1.49,0,0,1-.1-2.1A31.84,31.84,0,0,1,31.9,4.29a1.51,1.51,0,1,1,.37,3A28.88,28.88,0,0,0,14.55,16.5,1.5,1.5,0,0,1,13.45,16.93ZM57,15.61a1.48,1.48,0,0,1-1-.42A29,29,0,0,0,37.7,7.08a1.5,1.5,0,0,1,.19-3A32.31,32.31,0,0,1,45,5.38a31.81,31.81,0,0,1,13,7.68,1.49,1.49,0,0,1-1,2.55Z"/>
    </g>
  </g>
</svg>
